<svg xmlns="http://www.w3.org/2000/svg" xmlns:xlink="http://www.w3.org/1999/xlink" width="250" zoomAndPan="magnify" viewBox="0 0 187.5 187.499992" height="250" preserveAspectRatio="xMidYMid meet" version="1.0"><defs><clipPath id="2067115981"><path d="M 32.667969 3.042969 L 154.320312 3.042969 L 154.320312 183.953125 L 32.667969 183.953125 Z M 32.667969 3.042969 " clip-rule="nonzero"/></clipPath><clipPath id="3380627c29"><path d="M 62.003906 32.734375 L 125 32.734375 L 125 95.730469 L 62.003906 95.730469 Z M 62.003906 32.734375 " clip-rule="nonzero"/></clipPath><clipPath id="2e71d5de31"><path d="M 93.5 32.734375 C 76.105469 32.734375 62.003906 46.835938 62.003906 64.234375 C 62.003906 81.628906 76.105469 95.730469 93.5 95.730469 C 110.898438 95.730469 125 81.628906 125 64.234375 C 125 46.835938 110.898438 32.734375 93.5 32.734375 Z M 93.5 32.734375 " clip-rule="nonzero"/></clipPath><clipPath id="c6d435cd7d"><path d="M 0.00390625 0.734375 L 63 0.734375 L 63 63.730469 L 0.00390625 63.730469 Z M 0.00390625 0.734375 " clip-rule="nonzero"/></clipPath><clipPath id="68b0f5519f"><path d="M 31.5 0.734375 C 14.105469 0.734375 0.00390625 14.835938 0.00390625 32.234375 C 0.00390625 49.628906 14.105469 63.730469 31.5 63.730469 C 48.898438 63.730469 63 49.628906 63 32.234375 C 63 14.835938 48.898438 0.734375 31.5 0.734375 Z M 31.5 0.734375 " clip-rule="nonzero"/></clipPath><clipPath id="3ac9cca7cf"><rect x="0" width="63" y="0" height="64"/></clipPath><clipPath id="abe0cac9f6"><path d="M 65 109 L 76 109 L 76 119.277344 L 65 119.277344 Z M 65 109 " clip-rule="nonzero"/></clipPath><clipPath id="aec1751f82"><path d="M 111 109 L 122 109 L 122 119.277344 L 111 119.277344 Z M 111 109 " clip-rule="nonzero"/></clipPath><clipPath id="9672747cfc"><path d="M 58 29.515625 L 129 29.515625 L 129 42 L 58 42 Z M 58 29.515625 " clip-rule="nonzero"/></clipPath><clipPath id="ed59dd499c"><path d="M 48.550781 54 L 55 54 L 55 68 L 48.550781 68 Z M 48.550781 54 " clip-rule="nonzero"/></clipPath><clipPath id="66e1777a8a"><path d="M 132 54 L 138.3125 54 L 138.3125 68 L 132 68 Z M 132 54 " clip-rule="nonzero"/></clipPath></defs><g clip-path="url(#2067115981)"><path fill="#f59e0b" d="M 95.941406 94.214844 C 77.191406 95.691406 61.671875 80.171875 63.148438 61.421875 C 64.308594 46.675781 76.257812 34.726562 91.007812 33.5625 C 109.757812 32.085938 125.277344 47.609375 123.800781 66.355469 C 122.640625 81.105469 110.691406 93.054688 95.941406 94.214844 Z M 92.554688 3.050781 C 57.65625 3.566406 30.960938 33.847656 32.753906 68.703125 C 35.398438 120.226562 79.433594 170.601562 90.808594 182.796875 C 92.253906 184.34375 94.703125 184.335938 96.144531 182.789062 C 107.886719 170.199219 154.320312 117.042969 154.320312 63.890625 C 154.320312 29.984375 126.574219 2.546875 92.554688 3.050781 " fill-opacity="1" fill-rule="nonzero"/></g><g clip-path="url(#3380627c29)"><g clip-path="url(#2e71d5de31)"><g transform="matrix(1, 0, 0, 1, 62, 32)"><g clip-path="url(#3ac9cca7cf)"><g clip-path="url(#c6d435cd7d)"><g clip-path="url(#68b0f5519f)"><path fill="#f59e0b" d="M 0.00390625 0.734375 L 63 0.734375 L 63 63.730469 L 0.00390625 63.730469 Z M 0.00390625 0.734375 " fill-opacity="1" fill-rule="nonzero"/></g></g></g></g></g></g><g clip-path="url(#abe0cac9f6)"><path fill="#ffffff" d="M 65.722656 109.894531 L 75.328125 109.894531 L 75.328125 119.375 L 65.722656 119.375 Z M 65.722656 109.894531 " fill-opacity="1" fill-rule="nonzero"/></g><g clip-path="url(#aec1751f82)"><path fill="#ffffff" d="M 111.667969 109.894531 L 121.183594 109.894531 L 121.183594 119.375 L 111.667969 119.375 Z M 111.667969 109.894531 " fill-opacity="1" fill-rule="nonzero"/></g><g clip-path="url(#9672747cfc)"><path fill="#ffffff" d="M 115.445312 29.566406 L 71.457031 29.566406 C 64.726562 29.566406 59.136719 34.5625 58.207031 41.042969 L 128.699219 41.042969 C 127.769531 34.5625 122.179688 29.566406 115.445312 29.566406 Z M 98.132812 37.21875 L 88.773438 37.21875 C 87.714844 37.21875 86.859375 36.359375 86.859375 35.304688 C 86.859375 34.25 87.714844 33.390625 88.773438 33.390625 L 98.132812 33.390625 C 99.1875 33.390625 100.046875 34.25 100.046875 35.304688 C 100.046875 36.359375 99.191406 37.21875 98.132812 37.21875 Z M 98.132812 37.21875 " fill-opacity="1" fill-rule="nonzero"/></g><path fill="#ffffff" d="M 91.539062 44.867188 L 58.113281 44.867188 C 58.113281 49.480469 58.113281 78.988281 58.113281 83.117188 L 91.539062 83.117188 Z M 91.539062 44.867188 " fill-opacity="1" fill-rule="nonzero"/><g clip-path="url(#ed59dd499c)"><path fill="#ffffff" d="M 48.550781 54.429688 L 54.289062 54.429688 L 54.289062 67.816406 L 48.550781 67.816406 Z M 48.550781 54.429688 " fill-opacity="1" fill-rule="nonzero"/></g><path fill="#ffffff" d="M 121.230469 96.503906 C 121.230469 96.757812 121.179688 97.003906 121.082031 97.238281 C 120.984375 97.472656 120.847656 97.679688 120.667969 97.859375 C 120.488281 98.039062 120.28125 98.175781 120.046875 98.273438 C 119.8125 98.371094 119.570312 98.417969 119.316406 98.417969 C 119.0625 98.417969 118.820312 98.371094 118.585938 98.273438 C 118.351562 98.175781 118.144531 98.039062 117.964844 97.859375 C 117.785156 97.679688 117.644531 97.472656 117.550781 97.238281 C 117.453125 97.003906 117.402344 96.757812 117.402344 96.503906 C 117.402344 96.25 117.453125 96.007812 117.550781 95.773438 C 117.644531 95.539062 117.785156 95.332031 117.964844 95.152344 C 118.144531 94.972656 118.351562 94.835938 118.585938 94.738281 C 118.820312 94.640625 119.0625 94.59375 119.316406 94.59375 C 119.570312 94.59375 119.8125 94.640625 120.046875 94.738281 C 120.28125 94.835938 120.488281 94.972656 120.667969 95.152344 C 120.847656 95.332031 120.984375 95.539062 121.082031 95.773438 C 121.179688 96.007812 121.230469 96.25 121.230469 96.503906 Z M 121.230469 96.503906 " fill-opacity="1" fill-rule="nonzero"/><path fill="#ffffff" d="M 58.113281 105.957031 L 128.878906 105.957031 L 128.878906 86.941406 L 58.113281 86.941406 Z M 119.316406 90.769531 C 122.480469 90.769531 125.054688 93.339844 125.054688 96.503906 C 125.054688 99.667969 122.480469 102.242188 119.316406 102.242188 C 116.152344 102.242188 113.578125 99.667969 113.578125 96.503906 C 113.578125 93.339844 116.152344 90.769531 119.316406 90.769531 Z M 79.152344 90.769531 L 107.839844 90.769531 C 108.898438 90.769531 109.753906 91.625 109.753906 92.679688 C 109.753906 93.738281 108.898438 94.59375 107.839844 94.59375 L 79.152344 94.59375 C 78.097656 94.59375 77.242188 93.738281 77.242188 92.679688 C 77.242188 91.625 78.097656 90.769531 79.152344 90.769531 Z M 79.152344 98.417969 L 107.839844 98.417969 C 108.898438 98.417969 109.753906 99.273438 109.753906 100.332031 C 109.753906 101.386719 108.898438 102.242188 107.839844 102.242188 L 79.152344 102.242188 C 78.097656 102.242188 77.242188 101.386719 77.242188 100.332031 C 77.242188 99.273438 78.097656 98.417969 79.152344 98.417969 Z M 67.679688 90.769531 C 70.839844 90.769531 73.414062 93.339844 73.414062 96.503906 C 73.414062 99.667969 70.839844 102.242188 67.679688 102.242188 C 64.515625 102.242188 61.941406 99.667969 61.941406 96.503906 C 61.941406 93.339844 64.515625 90.769531 67.679688 90.769531 Z M 67.679688 90.769531 " fill-opacity="1" fill-rule="nonzero"/><path fill="#ffffff" d="M 95.367188 83.117188 L 128.878906 83.117188 C 128.878906 78.984375 128.878906 49.476562 128.878906 44.867188 L 95.367188 44.867188 Z M 95.367188 83.117188 " fill-opacity="1" fill-rule="nonzero"/><g clip-path="url(#66e1777a8a)"><path fill="#ffffff" d="M 132.703125 54.429688 L 138.441406 54.429688 L 138.441406 67.816406 L 132.703125 67.816406 Z M 132.703125 54.429688 " fill-opacity="1" fill-rule="nonzero"/></g><path fill="#ffffff" d="M 69.589844 96.503906 C 69.589844 96.757812 69.542969 97.003906 69.445312 97.238281 C 69.347656 97.472656 69.210938 97.679688 69.03125 97.859375 C 68.851562 98.039062 68.644531 98.175781 68.410156 98.273438 C 68.175781 98.371094 67.929688 98.417969 67.679688 98.417969 C 67.425781 98.417969 67.179688 98.371094 66.945312 98.273438 C 66.710938 98.175781 66.503906 98.039062 66.324219 97.859375 C 66.144531 97.679688 66.007812 97.472656 65.910156 97.238281 C 65.8125 97.003906 65.765625 96.757812 65.765625 96.503906 C 65.765625 96.25 65.8125 96.007812 65.910156 95.773438 C 66.007812 95.539062 66.144531 95.332031 66.324219 95.152344 C 66.503906 94.972656 66.710938 94.835938 66.945312 94.738281 C 67.179688 94.640625 67.425781 94.59375 67.679688 94.59375 C 67.929688 94.59375 68.175781 94.640625 68.410156 94.738281 C 68.644531 94.835938 68.851562 94.972656 69.03125 95.152344 C 69.210938 95.332031 69.347656 95.539062 69.445312 95.773438 C 69.542969 96.007812 69.589844 96.25 69.589844 96.503906 Z M 69.589844 96.503906 " fill-opacity="1" fill-rule="nonzero"/></svg>