<svg xmlns="http://www.w3.org/2000/svg" xmlns:xlink="http://www.w3.org/1999/xlink" width="250" zoomAndPan="magnify" viewBox="0 0 187.5 187.499992" height="250" preserveAspectRatio="xMidYMid meet" version="1.0"><defs><clipPath id="30f5dd261a"><path d="M 32.667969 3.042969 L 154.320312 3.042969 L 154.320312 183.953125 L 32.667969 183.953125 Z M 32.667969 3.042969 " clip-rule="nonzero"/></clipPath><clipPath id="942eaa70df"><path d="M 62.003906 32.734375 L 125 32.734375 L 125 95.730469 L 62.003906 95.730469 Z M 62.003906 32.734375 " clip-rule="nonzero"/></clipPath><clipPath id="abf9c913bb"><path d="M 93.5 32.734375 C 76.105469 32.734375 62.003906 46.835938 62.003906 64.234375 C 62.003906 81.628906 76.105469 95.730469 93.5 95.730469 C 110.898438 95.730469 125 81.628906 125 64.234375 C 125 46.835938 110.898438 32.734375 93.5 32.734375 Z M 93.5 32.734375 " clip-rule="nonzero"/></clipPath><clipPath id="4e3dcee252"><path d="M 0.00390625 0.734375 L 63 0.734375 L 63 63.730469 L 0.00390625 63.730469 Z M 0.00390625 0.734375 " clip-rule="nonzero"/></clipPath><clipPath id="b5b982d25c"><path d="M 31.5 0.734375 C 14.105469 0.734375 0.00390625 14.835938 0.00390625 32.234375 C 0.00390625 49.628906 14.105469 63.730469 31.5 63.730469 C 48.898438 63.730469 63 49.628906 63 32.234375 C 63 14.835938 48.898438 0.734375 31.5 0.734375 Z M 31.5 0.734375 " clip-rule="nonzero"/></clipPath><clipPath id="01a1a27633"><rect x="0" width="63" y="0" height="64"/></clipPath><clipPath id="94420ad623"><path d="M 54.164062 24.40625 L 132.707031 24.40625 L 132.707031 117 L 54.164062 117 Z M 54.164062 24.40625 " clip-rule="nonzero"/></clipPath></defs><g clip-path="url(#30f5dd261a)"><path fill="#ec4899" d="M 95.941406 94.214844 C 77.191406 95.691406 61.671875 80.171875 63.148438 61.421875 C 64.308594 46.675781 76.257812 34.726562 91.007812 33.5625 C 109.757812 32.085938 125.277344 47.609375 123.800781 66.355469 C 122.640625 81.105469 110.691406 93.054688 95.941406 94.214844 Z M 92.554688 3.050781 C 57.65625 3.566406 30.960938 33.847656 32.753906 68.703125 C 35.398438 120.226562 79.433594 170.601562 90.808594 182.796875 C 92.253906 184.34375 94.703125 184.335938 96.144531 182.789062 C 107.886719 170.199219 154.320312 117.042969 154.320312 63.890625 C 154.320312 29.984375 126.574219 2.546875 92.554688 3.050781 " fill-opacity="1" fill-rule="nonzero"/></g><g clip-path="url(#942eaa70df)"><g clip-path="url(#abf9c913bb)"><g transform="matrix(1, 0, 0, 1, 62, 32)"><g clip-path="url(#01a1a27633)"><g clip-path="url(#4e3dcee252)"><g clip-path="url(#b5b982d25c)"><path fill="#ec4899" d="M 0.00390625 0.734375 L 63 0.734375 L 63 63.730469 L 0.00390625 63.730469 Z M 0.00390625 0.734375 " fill-opacity="1" fill-rule="nonzero"/></g></g></g></g></g></g><g clip-path="url(#94420ad623)"><path fill="#ffffff" d="M 74.785156 86.140625 C 74.785156 83.089844 74.773438 80.035156 74.792969 76.984375 C 74.796875 76.261719 74.667969 75.972656 73.800781 75.808594 C 69.988281 75.09375 66.679688 73.382812 63.960938 70.523438 C 62.066406 68.527344 60.535156 66.332031 59.589844 63.765625 C 59.335938 63.066406 59.4375 62.238281 59.363281 61.472656 C 59.316406 60.992188 59.324219 60.484375 59.175781 60.035156 C 57 53.390625 55.300781 46.625 54.402344 39.6875 C 54.21875 38.25 54.183594 36.746094 54.390625 35.316406 C 55.078125 30.59375 58.445312 27.511719 63.558594 26.746094 C 64.261719 26.640625 64.96875 26.527344 65.675781 26.515625 C 66.800781 26.492188 67.78125 26.4375 68.695312 25.480469 C 69.734375 24.398438 71.652344 24.753906 72.609375 25.917969 C 73.5625 27.066406 73.5 28.738281 72.464844 29.804688 C 71.390625 30.90625 69.5625 31.089844 68.523438 29.957031 C 67.773438 29.136719 66.976562 28.984375 66.078125 29.167969 C 64.253906 29.53125 62.355469 29.792969 60.660156 30.507812 C 58.277344 31.515625 56.9375 33.589844 56.984375 36.171875 C 57.027344 38.828125 57.230469 41.535156 57.804688 44.117188 C 58.933594 49.167969 60.355469 54.152344 61.703125 59.148438 C 61.839844 59.65625 62.324219 60.0625 62.636719 60.527344 C 63.003906 61.070312 63.453125 61.582031 63.710938 62.175781 C 65.007812 65.164062 66.917969 67.667969 69.65625 69.433594 C 75.933594 73.480469 83.886719 71.8125 88.34375 65.554688 C 89.019531 64.605469 89.496094 63.519531 90.125 62.535156 C 90.625 61.753906 91.226562 61.035156 91.761719 60.269531 C 91.949219 60.003906 92.117188 59.707031 92.21875 59.398438 C 94.402344 52.800781 96.105469 46.085938 97.003906 39.183594 C 97.125 38.234375 97.140625 37.261719 97.078125 36.304688 C 96.878906 33.183594 95.257812 30.988281 92.324219 30.027344 C 90.609375 29.46875 88.734375 29.371094 86.917969 29.160156 C 86.566406 29.117188 86.09375 29.449219 85.792969 29.730469 C 84.484375 30.960938 82.71875 31.019531 81.535156 29.8125 C 80.429688 28.691406 80.425781 26.863281 81.527344 25.742188 C 82.691406 24.558594 84.503906 24.640625 85.800781 25.828125 C 86.179688 26.171875 86.777344 26.417969 87.289062 26.445312 C 89.777344 26.570312 92.207031 26.898438 94.453125 28.050781 C 97.558594 29.648438 99.300781 32.195312 99.640625 35.671875 C 100.027344 39.65625 99.121094 43.507812 98.226562 47.324219 C 97.214844 51.632812 95.921875 55.871094 94.78125 60.148438 C 94.648438 60.636719 94.738281 61.1875 94.699219 61.707031 C 94.65625 62.316406 94.722656 62.980469 94.503906 63.523438 C 92.328125 68.921875 88.6875 72.921875 83.183594 75.042969 C 82.21875 75.414062 81.140625 75.488281 80.160156 75.824219 C 79.789062 75.949219 79.269531 76.4375 79.269531 76.753906 C 79.304688 83.355469 78.832031 90.027344 79.625 96.542969 C 80.84375 106.546875 89.921875 113.144531 100.121094 112.304688 C 109.574219 111.523438 117.097656 103.230469 117.1875 93.472656 C 117.207031 91.464844 117.140625 89.457031 117.210938 87.453125 C 117.238281 86.578125 116.960938 86.246094 116.113281 86 C 111.339844 84.613281 108.292969 81.476562 107.105469 76.644531 C 105.808594 71.347656 108.148438 65.902344 112.847656 63.050781 C 117.492188 60.230469 123.519531 60.703125 127.578125 64.257812 C 131.351562 67.5625 132.816406 71.726562 131.683594 76.621094 C 130.5625 81.460938 127.476562 84.601562 122.703125 85.992188 C 121.84375 86.246094 121.621094 86.597656 121.613281 87.449219 C 121.589844 91.328125 121.886719 95.21875 120.953125 99.058594 C 118.175781 110.453125 107.246094 118.046875 95.476562 116.710938 C 83.835938 115.394531 74.898438 105.5 74.785156 93.792969 C 74.765625 91.242188 74.785156 88.691406 74.785156 86.140625 Z M 119.417969 81.992188 C 123.9375 81.980469 127.625 78.265625 127.585938 73.761719 C 127.550781 69.328125 123.828125 65.652344 119.390625 65.664062 C 114.929688 65.671875 111.164062 69.472656 111.21875 73.917969 C 111.269531 78.386719 114.941406 82.003906 119.417969 81.992188 Z M 119.417969 81.992188 " fill-opacity="1" fill-rule="nonzero"/></g><path fill="#ffffff" d="M 114.417969 73.984375 C 114.351562 71.210938 116.453125 68.996094 119.160156 68.835938 C 122.429688 68.644531 124.347656 71.417969 124.417969 73.714844 C 124.496094 76.453125 122.277344 78.777344 119.535156 78.839844 C 116.753906 78.90625 114.484375 76.75 114.417969 73.984375 Z M 114.417969 73.984375 " fill-opacity="1" fill-rule="nonzero"/></svg>