<svg xmlns="http://www.w3.org/2000/svg" xmlns:xlink="http://www.w3.org/1999/xlink" width="250" zoomAndPan="magnify" viewBox="0 0 187.5 187.499992" height="250" preserveAspectRatio="xMidYMid meet" version="1.0"><defs><clipPath id="71377b0e0b"><path d="M 32.667969 3.042969 L 154.320312 3.042969 L 154.320312 183.953125 L 32.667969 183.953125 Z M 32.667969 3.042969 " clip-rule="nonzero"/></clipPath><clipPath id="2c84c60c47"><path d="M 62.003906 32.734375 L 125 32.734375 L 125 95.730469 L 62.003906 95.730469 Z M 62.003906 32.734375 " clip-rule="nonzero"/></clipPath><clipPath id="1de7a47605"><path d="M 93.5 32.734375 C 76.105469 32.734375 62.003906 46.835938 62.003906 64.234375 C 62.003906 81.628906 76.105469 95.730469 93.5 95.730469 C 110.898438 95.730469 125 81.628906 125 64.234375 C 125 46.835938 110.898438 32.734375 93.5 32.734375 Z M 93.5 32.734375 " clip-rule="nonzero"/></clipPath><clipPath id="fdb10a1a23"><path d="M 0.00390625 0.734375 L 63 0.734375 L 63 63.730469 L 0.00390625 63.730469 Z M 0.00390625 0.734375 " clip-rule="nonzero"/></clipPath><clipPath id="81965b6f52"><path d="M 31.5 0.734375 C 14.105469 0.734375 0.00390625 14.835938 0.00390625 32.234375 C 0.00390625 49.628906 14.105469 63.730469 31.5 63.730469 C 48.898438 63.730469 63 49.628906 63 32.234375 C 63 14.835938 48.898438 0.734375 31.5 0.734375 Z M 31.5 0.734375 " clip-rule="nonzero"/></clipPath><clipPath id="5fa0c29c2f"><rect x="0" width="63" y="0" height="64"/></clipPath></defs><g clip-path="url(#71377b0e0b)"><path fill="#ec4899" d="M 95.941406 94.214844 C 77.191406 95.691406 61.671875 80.171875 63.148438 61.421875 C 64.308594 46.675781 76.257812 34.726562 91.007812 33.5625 C 109.757812 32.085938 125.277344 47.609375 123.800781 66.355469 C 122.640625 81.105469 110.691406 93.054688 95.941406 94.214844 Z M 92.554688 3.050781 C 57.65625 3.566406 30.960938 33.847656 32.753906 68.703125 C 35.398438 120.226562 79.433594 170.601562 90.808594 182.796875 C 92.253906 184.34375 94.703125 184.335938 96.144531 182.789062 C 107.886719 170.199219 154.320312 117.042969 154.320312 63.890625 C 154.320312 29.984375 126.574219 2.546875 92.554688 3.050781 " fill-opacity="1" fill-rule="nonzero"/></g><g clip-path="url(#2c84c60c47)"><g clip-path="url(#1de7a47605)"><g transform="matrix(1, 0, 0, 1, 62, 32)"><g clip-path="url(#5fa0c29c2f)"><g clip-path="url(#fdb10a1a23)"><g clip-path="url(#81965b6f52)"><path fill="#ec4899" d="M 0.00390625 0.734375 L 63 0.734375 L 63 63.730469 L 0.00390625 63.730469 Z M 0.00390625 0.734375 " fill-opacity="1" fill-rule="nonzero"/></g></g></g></g></g></g><path fill="#ffffff" d="M 130.292969 37.488281 C 130.066406 35.726562 129.605469 33.996094 128.917969 32.339844 C 127.621094 29.222656 125.515625 26.386719 122.648438 24.175781 C 113.882812 17.414062 101.292969 19.035156 94.527344 27.800781 L 75.210938 52.84375 C 80.792969 53.664062 87.460938 56.65625 93.816406 61.554688 C 95.144531 62.578125 96.386719 63.636719 97.554688 64.714844 C 98.996094 64.304688 100.515625 63.957031 102.097656 63.6875 C 100.316406 61.867188 98.34375 60.121094 96.199219 58.46875 C 91.5625 54.886719 86.652344 52.171875 81.921875 50.527344 L 97.617188 30.1875 C 100.25 26.773438 104.058594 24.589844 108.335938 24.035156 C 112.613281 23.484375 116.851562 24.628906 120.265625 27.265625 C 122.496094 28.984375 124.242188 31.257812 125.3125 33.839844 C 125.863281 35.164062 126.238281 36.5625 126.421875 37.984375 C 126.976562 42.265625 125.824219 46.503906 123.191406 49.917969 L 113.046875 63.066406 C 114.617188 63.148438 116.148438 63.300781 117.628906 63.515625 L 126.28125 52.300781 C 129.660156 47.914062 130.949219 42.578125 130.292969 37.488281 " fill-opacity="1" fill-rule="nonzero"/><path fill="#ffffff" d="M 89.46875 100.015625 C 82.691406 108.71875 70.148438 110.316406 61.402344 103.570312 C 52.632812 96.804688 51.011719 84.214844 57.773438 75.445312 L 72.699219 56.09375 C 77.617188 56.246094 84.570312 58.859375 91.671875 64.335938 C 92.394531 64.894531 93.089844 65.460938 93.757812 66.03125 C 86.546875 68.996094 81.921875 73.882812 81.921875 79.507812 L 81.921875 88.714844 C 81.921875 93.125 84.769531 97.082031 89.46875 100.015625 " fill-opacity="1" fill-rule="nonzero"/><path fill="#ffffff" d="M 101.246094 84.746094 L 128.179688 69.824219 C 132.964844 72.308594 135.984375 75.761719 135.984375 79.507812 C 135.984375 86.890625 124.269531 93.128906 110.398438 93.128906 C 105.324219 93.128906 100.550781 92.292969 96.523438 90.875 C 95.246094 90.425781 94.042969 89.914062 92.929688 89.355469 L 101.246094 84.746094 " fill-opacity="1" fill-rule="nonzero"/><path fill="#ffffff" d="M 84.816406 79.507812 C 84.816406 79.382812 84.820312 79.257812 84.828125 79.132812 C 84.832031 79.066406 84.835938 79 84.84375 78.933594 C 84.847656 78.863281 84.851562 78.792969 84.863281 78.726562 C 84.871094 78.617188 84.886719 78.511719 84.90625 78.40625 C 84.917969 78.316406 84.933594 78.226562 84.953125 78.136719 C 84.972656 78.023438 85 77.910156 85.027344 77.800781 C 85.0625 77.660156 85.101562 77.523438 85.140625 77.386719 C 85.179688 77.265625 85.21875 77.148438 85.261719 77.027344 C 85.277344 76.988281 85.292969 76.945312 85.304688 76.90625 C 85.34375 76.8125 85.378906 76.714844 85.421875 76.617188 C 85.460938 76.523438 85.5 76.433594 85.542969 76.34375 C 85.613281 76.195312 85.683594 76.050781 85.765625 75.90625 C 85.871094 75.699219 85.992188 75.492188 86.125 75.289062 C 86.175781 75.207031 86.230469 75.121094 86.289062 75.039062 C 86.582031 74.605469 86.917969 74.183594 87.292969 73.765625 C 87.382812 73.664062 87.480469 73.5625 87.582031 73.457031 C 87.582031 73.453125 87.585938 73.449219 87.59375 73.441406 C 87.710938 73.320312 87.828125 73.203125 87.953125 73.082031 C 88.054688 72.984375 88.15625 72.886719 88.265625 72.789062 C 88.34375 72.71875 88.421875 72.648438 88.503906 72.578125 C 88.585938 72.5 88.679688 72.421875 88.769531 72.34375 C 88.890625 72.242188 89.011719 72.140625 89.140625 72.042969 C 89.597656 71.679688 90.089844 71.328125 90.609375 70.992188 C 90.746094 70.898438 90.890625 70.808594 91.035156 70.722656 C 91.203125 70.617188 91.371094 70.515625 91.546875 70.414062 C 91.71875 70.3125 91.894531 70.210938 92.070312 70.113281 C 92.25 70.015625 92.429688 69.917969 92.617188 69.820312 C 92.800781 69.726562 92.988281 69.628906 93.175781 69.539062 C 93.273438 69.488281 93.371094 69.441406 93.472656 69.394531 C 93.660156 69.304688 93.851562 69.214844 94.046875 69.128906 C 94.148438 69.082031 94.253906 69.035156 94.359375 68.988281 C 94.550781 68.90625 94.75 68.824219 94.949219 68.742188 C 95.355469 68.574219 95.769531 68.414062 96.195312 68.257812 C 97.390625 67.824219 98.652344 67.441406 99.976562 67.117188 C 100.027344 67.105469 100.078125 67.09375 100.132812 67.082031 C 100.441406 67.003906 100.753906 66.933594 101.066406 66.867188 C 101.28125 66.820312 101.496094 66.777344 101.707031 66.734375 C 101.761719 66.722656 101.816406 66.710938 101.871094 66.703125 C 102.007812 66.671875 102.148438 66.644531 102.296875 66.621094 C 102.328125 66.613281 102.363281 66.605469 102.398438 66.601562 C 102.660156 66.554688 102.921875 66.507812 103.1875 66.46875 C 103.285156 66.449219 103.386719 66.433594 103.488281 66.417969 C 103.804688 66.367188 104.121094 66.324219 104.441406 66.28125 C 104.449219 66.277344 104.460938 66.277344 104.46875 66.277344 C 106.378906 66.023438 108.367188 65.890625 110.398438 65.890625 C 110.554688 65.890625 110.707031 65.890625 110.863281 65.894531 C 110.910156 65.894531 110.957031 65.894531 111.003906 65.898438 C 111.296875 65.898438 111.585938 65.90625 111.875 65.917969 C 111.964844 65.917969 112.0625 65.921875 112.152344 65.925781 C 112.515625 65.9375 112.882812 65.957031 113.242188 65.980469 C 113.605469 66.003906 113.964844 66.027344 114.320312 66.058594 C 114.421875 66.066406 114.519531 66.074219 114.617188 66.085938 C 114.9375 66.117188 115.253906 66.152344 115.566406 66.1875 C 118.941406 66.570312 122.09375 67.324219 124.867188 68.355469 L 104.199219 79.808594 L 90.050781 87.648438 C 86.777344 85.359375 84.816406 82.527344 84.816406 79.507812 " fill-opacity="1" fill-rule="nonzero"/><path fill="#ffffff" d="M 135.984375 86.867188 L 135.984375 88.714844 C 135.984375 96.097656 124.269531 102.332031 110.398438 102.332031 C 102.894531 102.332031 96.015625 100.507812 91.292969 97.660156 C 90.832031 97.386719 90.390625 97.097656 89.976562 96.804688 C 89.851562 96.71875 89.730469 96.628906 89.609375 96.539062 C 89.488281 96.449219 89.371094 96.359375 89.253906 96.269531 C 88.539062 95.710938 87.902344 95.125 87.347656 94.519531 C 87.269531 94.4375 87.191406 94.351562 87.117188 94.257812 C 86.992188 94.121094 86.875 93.980469 86.765625 93.835938 C 86.691406 93.742188 86.621094 93.648438 86.550781 93.554688 C 86.019531 92.839844 85.605469 92.097656 85.3125 91.335938 C 85.28125 91.253906 85.25 91.171875 85.226562 91.089844 C 85.191406 90.992188 85.15625 90.886719 85.125 90.785156 C 85.121094 90.765625 85.113281 90.742188 85.105469 90.71875 C 85.078125 90.621094 85.050781 90.523438 85.027344 90.421875 C 85 90.3125 84.972656 90.199219 84.953125 90.085938 C 84.929688 89.972656 84.910156 89.859375 84.894531 89.746094 C 84.875 89.632812 84.863281 89.519531 84.851562 89.402344 C 84.84375 89.320312 84.835938 89.238281 84.832031 89.152344 C 84.820312 89.007812 84.816406 88.859375 84.816406 88.714844 L 84.816406 86.867188 C 85.117188 87.226562 85.4375 87.578125 85.78125 87.917969 C 85.929688 88.0625 86.078125 88.210938 86.234375 88.351562 C 86.554688 88.648438 86.886719 88.9375 87.238281 89.222656 C 87.34375 89.304688 87.449219 89.390625 87.554688 89.46875 C 87.667969 89.5625 87.78125 89.648438 87.898438 89.734375 C 87.90625 89.738281 87.914062 89.746094 87.921875 89.75 C 88.117188 89.898438 88.3125 90.039062 88.515625 90.175781 C 88.71875 90.320312 88.929688 90.460938 89.144531 90.597656 C 89.148438 90.601562 89.152344 90.605469 89.15625 90.605469 C 89.355469 90.734375 89.554688 90.863281 89.761719 90.984375 C 89.824219 91.019531 89.882812 91.054688 89.945312 91.089844 C 90.082031 91.175781 90.222656 91.253906 90.363281 91.332031 C 90.5 91.414062 90.640625 91.492188 90.78125 91.566406 C 90.964844 91.667969 91.152344 91.769531 91.339844 91.859375 C 91.511719 91.953125 91.6875 92.042969 91.863281 92.128906 C 91.914062 92.152344 91.960938 92.179688 92.007812 92.199219 C 92.183594 92.285156 92.363281 92.371094 92.546875 92.457031 C 92.726562 92.539062 92.910156 92.621094 93.09375 92.699219 C 93.277344 92.78125 93.460938 92.859375 93.648438 92.9375 C 93.796875 93 93.949219 93.0625 94.105469 93.121094 C 94.28125 93.195312 94.457031 93.261719 94.632812 93.328125 C 99.117188 95.03125 104.523438 96.015625 110.398438 96.015625 C 121.78125 96.015625 131.398438 92.328125 135.984375 86.867188 " fill-opacity="1" fill-rule="nonzero"/></svg>