<svg xmlns="http://www.w3.org/2000/svg" xmlns:xlink="http://www.w3.org/1999/xlink" width="250" zoomAndPan="magnify" viewBox="0 0 187.5 187.499992" height="250" preserveAspectRatio="xMidYMid meet" version="1.0"><defs><clipPath id="192c606a4b"><path d="M 32.667969 3.042969 L 154.320312 3.042969 L 154.320312 183.953125 L 32.667969 183.953125 Z M 32.667969 3.042969 " clip-rule="nonzero"/></clipPath><clipPath id="970af3c8b0"><path d="M 62.003906 32.734375 L 125 32.734375 L 125 95.730469 L 62.003906 95.730469 Z M 62.003906 32.734375 " clip-rule="nonzero"/></clipPath><clipPath id="7829fbeca6"><path d="M 93.5 32.734375 C 76.105469 32.734375 62.003906 46.835938 62.003906 64.234375 C 62.003906 81.628906 76.105469 95.730469 93.5 95.730469 C 110.898438 95.730469 125 81.628906 125 64.234375 C 125 46.835938 110.898438 32.734375 93.5 32.734375 Z M 93.5 32.734375 " clip-rule="nonzero"/></clipPath><clipPath id="24f255a0fa"><path d="M 0.00390625 0.734375 L 63 0.734375 L 63 63.730469 L 0.00390625 63.730469 Z M 0.00390625 0.734375 " clip-rule="nonzero"/></clipPath><clipPath id="6ee7e77d73"><path d="M 31.5 0.734375 C 14.105469 0.734375 0.00390625 14.835938 0.00390625 32.234375 C 0.00390625 49.628906 14.105469 63.730469 31.5 63.730469 C 48.898438 63.730469 63 49.628906 63 32.234375 C 63 14.835938 48.898438 0.734375 31.5 0.734375 Z M 31.5 0.734375 " clip-rule="nonzero"/></clipPath><clipPath id="49d5c231b4"><rect x="0" width="63" y="0" height="64"/></clipPath><clipPath id="9c797f712c"><path d="M 50 27.484375 L 137.210938 27.484375 L 137.210938 111.261719 L 50 111.261719 Z M 50 27.484375 " clip-rule="nonzero"/></clipPath><clipPath id="6613b1a07f"><path d="M 49.695312 27.484375 L 137.210938 27.484375 L 137.210938 111.261719 L 49.695312 111.261719 Z M 49.695312 27.484375 " clip-rule="nonzero"/></clipPath></defs><g clip-path="url(#192c606a4b)"><path fill="#10b981" d="M 95.941406 94.214844 C 77.191406 95.691406 61.671875 80.171875 63.148438 61.421875 C 64.308594 46.675781 76.257812 34.726562 91.007812 33.5625 C 109.757812 32.085938 125.277344 47.609375 123.800781 66.355469 C 122.640625 81.105469 110.691406 93.054688 95.941406 94.214844 Z M 92.554688 3.050781 C 57.65625 3.566406 30.960938 33.847656 32.753906 68.703125 C 35.398438 120.226562 79.433594 170.601562 90.808594 182.796875 C 92.253906 184.34375 94.703125 184.335938 96.144531 182.789062 C 107.886719 170.199219 154.320312 117.042969 154.320312 63.890625 C 154.320312 29.984375 126.574219 2.546875 92.554688 3.050781 " fill-opacity="1" fill-rule="nonzero"/></g><g clip-path="url(#970af3c8b0)"><g clip-path="url(#7829fbeca6)"><g transform="matrix(1, 0, 0, 1, 62, 32)"><g clip-path="url(#49d5c231b4)"><g clip-path="url(#24f255a0fa)"><g clip-path="url(#6ee7e77d73)"><path fill="#10b981" d="M 0.00390625 0.734375 L 63 0.734375 L 63 63.730469 L 0.00390625 63.730469 Z M 0.00390625 0.734375 " fill-opacity="1" fill-rule="nonzero"/></g></g></g></g></g></g><g clip-path="url(#9c797f712c)"><path fill="#ffffff" d="M 60.460938 46.953125 C 60.460938 47.398438 60.613281 47.8125 60.875 48.148438 C 59.378906 60.0625 51.460938 67.085938 50.5625 79.152344 C 49.777344 89.015625 53.777344 95.964844 58.257812 99.289062 C 59.976562 100.558594 61.808594 101.34375 63.527344 101.566406 C 65.46875 101.828125 67.300781 101.378906 68.71875 100.257812 C 70.734375 98.652344 71.855469 95.664062 71.148438 91.332031 C 70.472656 86.847656 71.78125 82.367188 73.835938 79.152344 C 74.433594 78.21875 75.070312 77.398438 75.742188 76.761719 L 75.742188 102.648438 L 67.261719 102.648438 C 66.328125 102.648438 65.09375 103.433594 64.535156 104.367188 L 61.507812 109.335938 C 60.949219 110.308594 61.246094 111.054688 62.179688 111.054688 L 136.070312 111.054688 C 137.003906 111.054688 137.304688 110.308594 136.746094 109.335938 L 133.71875 104.367188 C 133.15625 103.433594 131.925781 102.648438 130.992188 102.648438 L 122.550781 102.648438 L 122.550781 28.609375 C 122.550781 28.050781 122.0625 27.5625 121.503906 27.5625 L 76.75 27.5625 C 76.191406 27.5625 75.742188 28.050781 75.742188 28.609375 L 75.742188 71.34375 C 75.21875 71.605469 74.734375 71.90625 74.246094 72.242188 C 72.753906 73.324219 71.332031 74.894531 70.136719 76.800781 C 67.597656 80.796875 65.953125 86.363281 66.851562 92.003906 C 67.261719 94.582031 66.851562 96.148438 65.992188 96.824219 C 65.507812 97.195312 64.871094 97.308594 64.085938 97.234375 C 63.078125 97.082031 61.957031 96.597656 60.835938 95.777344 C 57.363281 93.199219 54.300781 87.632812 54.933594 79.488281 C 55.792969 68.019531 63.527344 61.257812 65.167969 48.96875 L 68.867188 48.96875 C 69.988281 48.96875 70.886719 48.074219 70.886719 46.953125 L 70.886719 33.617188 C 70.886719 33.542969 70.886719 33.503906 70.886719 33.429688 L 73.875 28.347656 L 69.09375 29.320312 C 69.09375 29.320312 60.460938 46.953125 60.460938 46.953125 Z M 114.21875 56.105469 L 103.085938 56.105469 C 103.011719 56.105469 102.972656 56.140625 102.972656 56.214844 L 102.972656 58.683594 C 102.972656 58.71875 103.011719 58.757812 103.085938 58.757812 L 114.21875 58.757812 C 114.292969 58.757812 114.332031 58.71875 114.332031 58.683594 L 114.332031 56.214844 C 114.332031 56.140625 114.292969 56.105469 114.21875 56.105469 Z M 94.941406 56.105469 L 84.257812 56.105469 C 84.070312 56.105469 83.921875 56.253906 83.921875 56.441406 L 83.921875 64.585938 C 83.921875 64.769531 84.070312 64.921875 84.257812 64.921875 L 94.941406 64.921875 C 95.128906 64.921875 95.277344 64.769531 95.277344 64.585938 L 95.277344 56.441406 C 95.277344 56.253906 95.128906 56.105469 94.941406 56.105469 Z M 113.65625 35.445312 L 84.59375 35.445312 C 84.222656 35.445312 83.921875 35.746094 83.921875 36.117188 L 83.921875 52.441406 C 83.921875 52.78125 84.222656 53.078125 84.59375 53.078125 L 113.65625 53.078125 C 114.03125 53.078125 114.332031 52.78125 114.332031 52.441406 L 114.332031 36.117188 C 114.332031 35.746094 114.03125 35.445312 113.65625 35.445312 Z M 113.65625 35.445312 " fill-opacity="1" fill-rule="evenodd"/></g><g clip-path="url(#6613b1a07f)"><path stroke-linecap="butt" transform="matrix(0.0373562, 0, 0, 0.0373562, 50.376643, 27.489365)" fill="none" stroke-linejoin="miter" d="M 269.949621 521.031453 C 269.949621 532.952162 274.027758 544.036329 281.033789 553.029145 C 240.98439 871.960391 29.025821 1059.972974 4.975268 1382.982357 C -16.042824 1647.015601 91.034421 1833.0414 210.973483 1922.028446 C 256.983236 1956.012923 306.025451 1977.031015 352.035204 1982.991369 C 404.005312 1989.9974 453.047526 1977.972123 491.005573 1947.961216 C 544.962466 1904.983924 574.973373 1824.989693 556.046634 1709.024201 C 537.956435 1588.980571 572.986588 1469.041509 627.989157 1382.982357 C 643.988003 1357.990695 661.032526 1336.031495 679.018157 1318.986973 L 679.018157 2011.9566 L 452.00185 2011.9566 C 427.010189 2011.9566 393.96682 2032.974692 379.01365 2057.966354 L 297.973744 2190.976368 C 283.020574 2217.013706 290.967713 2236.986122 315.959375 2236.986122 L 2293.960504 2236.986122 C 2318.952165 2236.986122 2327.003872 2217.013706 2312.050702 2190.976368 L 2231.010795 2057.966354 C 2215.953058 2032.974692 2183.014257 2011.9566 2158.022596 2011.9566 L 1932.051965 2011.9566 L 1932.051965 29.981902 C 1932.051965 15.028732 1918.981013 1.957779 1904.027843 1.957779 L 705.996603 1.957779 C 691.043433 1.957779 679.018157 15.028732 679.018157 29.981902 L 679.018157 1173.951681 C 665.006095 1180.957712 652.03971 1189.009419 638.968758 1198.002234 C 599.023926 1226.967466 560.961312 1269.003649 528.96362 1320.032649 C 460.994666 1427.005326 416.971697 1576.014186 441.02225 1727.009832 C 452.00185 1796.024462 441.02225 1837.956078 418.017373 1856.046277 C 405.050988 1865.980201 388.006466 1869.012662 366.988374 1867.025877 C 340.009928 1862.94774 309.99902 1849.981355 279.988113 1828.022154 C 187.027497 1759.007524 105.046482 1609.998663 121.986437 1391.975172 C 144.991313 1084.964636 352.035204 903.958083 395.953605 574.988345 L 494.979143 574.988345 C 524.99005 574.988345 549.040603 551.04236 549.040603 521.031453 L 549.040603 164.037593 C 549.040603 162.050808 549.040603 161.005132 549.040603 159.018347 L 629.034834 22.975871 L 501.044065 49.013209 C 501.044065 49.013209 269.949621 521.031453 269.949621 521.031453 Z M 1709.009229 766.03339 L 1410.991507 766.03339 C 1409.004723 766.03339 1407.959046 766.974498 1407.959046 768.961283 L 1407.959046 835.04802 C 1407.959046 835.989129 1409.004723 837.034805 1410.991507 837.034805 L 1709.009229 837.034805 C 1710.996013 837.034805 1712.04169 835.989129 1712.04169 835.04802 L 1712.04169 768.961283 C 1712.04169 766.974498 1710.996013 766.03339 1709.009229 766.03339 Z M 1192.968016 766.03339 L 906.975572 766.03339 C 901.956326 766.03339 897.982756 770.00696 897.982756 775.026205 L 897.982756 993.049696 C 897.982756 997.964374 901.956326 1002.042512 906.975572 1002.042512 L 1192.968016 1002.042512 C 1197.987262 1002.042512 1201.960832 997.964374 1201.960832 993.049696 L 1201.960832 775.026205 C 1201.960832 770.00696 1197.987262 766.03339 1192.968016 766.03339 Z M 1693.951491 212.97524 L 915.968387 212.97524 C 906.034463 212.97524 897.982756 221.026946 897.982756 230.960871 L 897.982756 667.948961 C 897.982756 677.046344 906.034463 684.993483 915.968387 684.993483 L 1693.951491 684.993483 C 1703.989983 684.993483 1712.04169 677.046344 1712.04169 667.948961 L 1712.04169 230.960871 C 1712.04169 221.026946 1703.989983 212.97524 1693.951491 212.97524 Z M 1693.951491 212.97524 " stroke="#373435" stroke-width="4.219" stroke-opacity="1" stroke-miterlimit="4"/></g></svg>