<svg xmlns="http://www.w3.org/2000/svg" xmlns:xlink="http://www.w3.org/1999/xlink" width="250" zoomAndPan="magnify" viewBox="0 0 187.5 187.499992" height="250" preserveAspectRatio="xMidYMid meet" version="1.0"><defs><clipPath id="9355e7ea00"><path d="M 32.667969 3.042969 L 154.320312 3.042969 L 154.320312 183.953125 L 32.667969 183.953125 Z M 32.667969 3.042969 " clip-rule="nonzero"/></clipPath><clipPath id="0635457bb7"><path d="M 62.003906 32.734375 L 125 32.734375 L 125 95.730469 L 62.003906 95.730469 Z M 62.003906 32.734375 " clip-rule="nonzero"/></clipPath><clipPath id="69b9d0f0c3"><path d="M 93.5 32.734375 C 76.105469 32.734375 62.003906 46.835938 62.003906 64.234375 C 62.003906 81.628906 76.105469 95.730469 93.5 95.730469 C 110.898438 95.730469 125 81.628906 125 64.234375 C 125 46.835938 110.898438 32.734375 93.5 32.734375 Z M 93.5 32.734375 " clip-rule="nonzero"/></clipPath><clipPath id="da149e9d0a"><path d="M 0.00390625 0.734375 L 63 0.734375 L 63 63.730469 L 0.00390625 63.730469 Z M 0.00390625 0.734375 " clip-rule="nonzero"/></clipPath><clipPath id="20781110c1"><path d="M 31.5 0.734375 C 14.105469 0.734375 0.00390625 14.835938 0.00390625 32.234375 C 0.00390625 49.628906 14.105469 63.730469 31.5 63.730469 C 48.898438 63.730469 63 49.628906 63 32.234375 C 63 14.835938 48.898438 0.734375 31.5 0.734375 Z M 31.5 0.734375 " clip-rule="nonzero"/></clipPath><clipPath id="1795489698"><rect x="0" width="63" y="0" height="64"/></clipPath><clipPath id="b5f026144c"><path d="M 45.902344 18.699219 L 140.898438 18.699219 L 140.898438 113.695312 L 45.902344 113.695312 Z M 45.902344 18.699219 " clip-rule="nonzero"/></clipPath></defs><g clip-path="url(#9355e7ea00)"><path fill="#ec4899" d="M 95.941406 94.214844 C 77.191406 95.691406 61.671875 80.171875 63.148438 61.421875 C 64.308594 46.675781 76.257812 34.726562 91.007812 33.5625 C 109.757812 32.085938 125.277344 47.609375 123.800781 66.355469 C 122.640625 81.105469 110.691406 93.054688 95.941406 94.214844 Z M 92.554688 3.050781 C 57.65625 3.566406 30.960938 33.847656 32.753906 68.703125 C 35.398438 120.226562 79.433594 170.601562 90.808594 182.796875 C 92.253906 184.34375 94.703125 184.335938 96.144531 182.789062 C 107.886719 170.199219 154.320312 117.042969 154.320312 63.890625 C 154.320312 29.984375 126.574219 2.546875 92.554688 3.050781 " fill-opacity="1" fill-rule="nonzero"/></g><g clip-path="url(#0635457bb7)"><g clip-path="url(#69b9d0f0c3)"><g transform="matrix(1, 0, 0, 1, 62, 32)"><g clip-path="url(#1795489698)"><g clip-path="url(#da149e9d0a)"><g clip-path="url(#20781110c1)"><path fill="#ec4899" d="M 0.00390625 0.734375 L 63 0.734375 L 63 63.730469 L 0.00390625 63.730469 Z M 0.00390625 0.734375 " fill-opacity="1" fill-rule="nonzero"/></g></g></g></g></g></g><path fill="#ffffff" d="M 138.371094 50.742188 L 109.140625 50.742188 L 109.140625 21.511719 L 78.039062 21.511719 L 78.039062 50.742188 L 48.808594 50.742188 L 48.808594 81.84375 L 78.039062 81.84375 L 78.039062 111.074219 L 109.140625 111.074219 L 109.140625 81.84375 L 138.371094 81.84375 Z M 138.371094 50.742188 " fill-opacity="1" fill-rule="nonzero"/><g clip-path="url(#b5f026144c)"><path fill="#ffffff" d="M 109.140625 113.882812 L 78.039062 113.882812 C 76.539062 113.882812 75.226562 112.570312 75.226562 111.074219 L 75.226562 84.652344 L 48.808594 84.652344 C 47.308594 84.652344 45.996094 83.34375 45.996094 81.84375 L 45.996094 50.742188 C 45.996094 49.242188 47.308594 47.929688 48.808594 47.929688 L 75.226562 47.929688 L 75.226562 21.511719 C 75.226562 20.011719 76.539062 18.699219 78.039062 18.699219 L 108.953125 18.699219 C 110.453125 18.699219 111.765625 20.011719 111.765625 21.511719 L 111.765625 47.929688 L 138.183594 47.929688 C 139.683594 47.929688 140.992188 49.242188 140.992188 50.742188 L 140.992188 81.65625 C 140.992188 83.15625 139.683594 84.46875 138.183594 84.46875 L 111.953125 84.46875 L 111.953125 110.886719 C 111.953125 112.570312 110.640625 113.882812 109.140625 113.882812 Z M 80.847656 108.261719 L 106.144531 108.261719 L 106.144531 81.84375 C 106.144531 80.34375 107.453125 79.03125 108.953125 79.03125 L 135.371094 79.03125 L 135.371094 53.550781 L 109.140625 53.550781 C 107.640625 53.550781 106.332031 52.238281 106.332031 50.742188 L 106.332031 24.320312 L 80.847656 24.320312 L 80.847656 50.742188 C 80.847656 52.238281 79.535156 53.550781 78.039062 53.550781 L 51.617188 53.550781 L 51.617188 78.847656 L 78.039062 78.847656 C 79.535156 78.847656 80.847656 80.15625 80.847656 81.65625 Z M 80.847656 108.261719 " fill-opacity="1" fill-rule="nonzero"/></g></svg>