<svg xmlns="http://www.w3.org/2000/svg" xmlns:xlink="http://www.w3.org/1999/xlink" width="250" zoomAndPan="magnify" viewBox="0 0 187.5 187.499992" height="250" preserveAspectRatio="xMidYMid meet" version="1.0"><defs><clipPath id="152a6c9f5c"><path d="M 32.667969 3.042969 L 154.320312 3.042969 L 154.320312 183.953125 L 32.667969 183.953125 Z M 32.667969 3.042969 " clip-rule="nonzero"/></clipPath><clipPath id="4e06a2ba0b"><path d="M 62.003906 32.734375 L 125 32.734375 L 125 95.730469 L 62.003906 95.730469 Z M 62.003906 32.734375 " clip-rule="nonzero"/></clipPath><clipPath id="d8a5914902"><path d="M 93.5 32.734375 C 76.105469 32.734375 62.003906 46.835938 62.003906 64.234375 C 62.003906 81.628906 76.105469 95.730469 93.5 95.730469 C 110.898438 95.730469 125 81.628906 125 64.234375 C 125 46.835938 110.898438 32.734375 93.5 32.734375 Z M 93.5 32.734375 " clip-rule="nonzero"/></clipPath><clipPath id="896363c67e"><path d="M 0.00390625 0.734375 L 63 0.734375 L 63 63.730469 L 0.00390625 63.730469 Z M 0.00390625 0.734375 " clip-rule="nonzero"/></clipPath><clipPath id="f36506f904"><path d="M 31.5 0.734375 C 14.105469 0.734375 0.00390625 14.835938 0.00390625 32.234375 C 0.00390625 49.628906 14.105469 63.730469 31.5 63.730469 C 48.898438 63.730469 63 49.628906 63 32.234375 C 63 14.835938 48.898438 0.734375 31.5 0.734375 Z M 31.5 0.734375 " clip-rule="nonzero"/></clipPath><clipPath id="913dd5bcf4"><rect x="0" width="63" y="0" height="64"/></clipPath><clipPath id="af7a99c240"><path d="M 122 76 L 136 76 L 136 89.472656 L 122 89.472656 Z M 122 76 " clip-rule="nonzero"/></clipPath><clipPath id="98974e72d3"><path d="M 39.070312 45.339844 L 148 45.339844 L 148 86 L 39.070312 86 Z M 39.070312 45.339844 " clip-rule="nonzero"/></clipPath><clipPath id="35ed97fb8c"><path d="M 54 76 L 69 76 L 69 89.472656 L 54 89.472656 Z M 54 76 " clip-rule="nonzero"/></clipPath></defs><g clip-path="url(#152a6c9f5c)"><path fill="#f59e0b" d="M 95.941406 94.214844 C 77.191406 95.691406 61.671875 80.171875 63.148438 61.421875 C 64.308594 46.675781 76.257812 34.726562 91.007812 33.5625 C 109.757812 32.085938 125.277344 47.609375 123.800781 66.355469 C 122.640625 81.105469 110.691406 93.054688 95.941406 94.214844 Z M 92.554688 3.050781 C 57.65625 3.566406 30.960938 33.847656 32.753906 68.703125 C 35.398438 120.226562 79.433594 170.601562 90.808594 182.796875 C 92.253906 184.34375 94.703125 184.335938 96.144531 182.789062 C 107.886719 170.199219 154.320312 117.042969 154.320312 63.890625 C 154.320312 29.984375 126.574219 2.546875 92.554688 3.050781 " fill-opacity="1" fill-rule="nonzero"/></g><g clip-path="url(#4e06a2ba0b)"><g clip-path="url(#d8a5914902)"><g transform="matrix(1, 0, 0, 1, 62, 32)"><g clip-path="url(#913dd5bcf4)"><g clip-path="url(#896363c67e)"><g clip-path="url(#f36506f904)"><path fill="#f59e0b" d="M 0.00390625 0.734375 L 63 0.734375 L 63 63.730469 L 0.00390625 63.730469 Z M 0.00390625 0.734375 " fill-opacity="1" fill-rule="nonzero"/></g></g></g></g></g></g><path fill="#ffffff" d="M 130.871094 82.976562 C 130.871094 83.226562 130.824219 83.46875 130.730469 83.699219 C 130.632812 83.929688 130.5 84.132812 130.320312 84.308594 C 130.144531 84.484375 129.941406 84.621094 129.710938 84.714844 C 129.480469 84.808594 129.242188 84.859375 128.992188 84.859375 C 128.742188 84.859375 128.503906 84.808594 128.273438 84.714844 C 128.042969 84.621094 127.839844 84.484375 127.664062 84.308594 C 127.488281 84.132812 127.351562 83.929688 127.257812 83.699219 C 127.160156 83.46875 127.113281 83.226562 127.113281 82.976562 C 127.113281 82.730469 127.160156 82.488281 127.257812 82.257812 C 127.351562 82.027344 127.488281 81.824219 127.664062 81.648438 C 127.839844 81.472656 128.042969 81.335938 128.273438 81.242188 C 128.503906 81.144531 128.742188 81.097656 128.992188 81.097656 C 129.242188 81.097656 129.480469 81.144531 129.710938 81.242188 C 129.941406 81.335938 130.144531 81.472656 130.320312 81.648438 C 130.5 81.824219 130.632812 82.027344 130.730469 82.257812 C 130.824219 82.488281 130.871094 82.730469 130.871094 82.976562 Z M 130.871094 82.976562 " fill-opacity="1" fill-rule="nonzero"/><g clip-path="url(#af7a99c240)"><path fill="#ffffff" d="M 128.992188 76.203125 C 128.546875 76.203125 128.105469 76.246094 127.671875 76.332031 C 127.234375 76.417969 126.8125 76.546875 126.398438 76.71875 C 125.988281 76.890625 125.597656 77.097656 125.230469 77.34375 C 124.859375 77.589844 124.515625 77.871094 124.203125 78.1875 C 123.886719 78.5 123.605469 78.84375 123.359375 79.214844 C 123.113281 79.582031 122.902344 79.972656 122.734375 80.386719 C 122.5625 80.796875 122.433594 81.21875 122.347656 81.65625 C 122.261719 82.09375 122.21875 82.535156 122.21875 82.976562 C 122.21875 83.421875 122.261719 83.863281 122.347656 84.300781 C 122.433594 84.738281 122.5625 85.160156 122.734375 85.570312 C 122.902344 85.980469 123.113281 86.371094 123.359375 86.742188 C 123.605469 87.113281 123.886719 87.453125 124.203125 87.769531 C 124.515625 88.082031 124.859375 88.363281 125.230469 88.613281 C 125.597656 88.859375 125.988281 89.066406 126.398438 89.238281 C 126.8125 89.410156 127.234375 89.535156 127.671875 89.625 C 128.105469 89.710938 128.546875 89.753906 128.992188 89.753906 C 129.4375 89.753906 129.878906 89.710938 130.316406 89.625 C 130.75 89.535156 131.175781 89.410156 131.585938 89.238281 C 131.996094 89.066406 132.386719 88.859375 132.757812 88.613281 C 133.128906 88.363281 133.46875 88.082031 133.785156 87.769531 C 134.097656 87.453125 134.378906 87.113281 134.625 86.742188 C 134.875 86.371094 135.082031 85.980469 135.253906 85.570312 C 135.421875 85.160156 135.550781 84.738281 135.636719 84.300781 C 135.726562 83.863281 135.769531 83.421875 135.769531 82.976562 C 135.769531 82.535156 135.726562 82.09375 135.636719 81.65625 C 135.550781 81.21875 135.421875 80.796875 135.253906 80.386719 C 135.082031 79.972656 134.875 79.582031 134.625 79.214844 C 134.378906 78.84375 134.097656 78.5 133.785156 78.1875 C 133.46875 77.871094 133.128906 77.589844 132.757812 77.34375 C 132.386719 77.097656 131.996094 76.890625 131.585938 76.71875 C 131.175781 76.546875 130.75 76.417969 130.316406 76.332031 C 129.878906 76.246094 129.4375 76.203125 128.992188 76.203125 Z M 128.992188 86.816406 C 128.484375 86.816406 127.996094 86.71875 127.523438 86.523438 C 127.054688 86.328125 126.640625 86.050781 126.277344 85.691406 C 125.917969 85.332031 125.640625 84.917969 125.445312 84.445312 C 125.253906 83.976562 125.15625 83.488281 125.15625 82.976562 C 125.15625 82.46875 125.253906 81.980469 125.445312 81.507812 C 125.640625 81.039062 125.917969 80.625 126.277344 80.265625 C 126.640625 79.90625 127.054688 79.628906 127.523438 79.433594 C 127.996094 79.238281 128.484375 79.140625 128.992188 79.140625 C 129.5 79.140625 129.992188 79.238281 130.460938 79.433594 C 130.933594 79.628906 131.347656 79.90625 131.707031 80.265625 C 132.066406 80.625 132.34375 81.039062 132.539062 81.507812 C 132.734375 81.980469 132.832031 82.46875 132.832031 82.976562 C 132.832031 83.488281 132.734375 83.976562 132.539062 84.445312 C 132.34375 84.917969 132.066406 85.332031 131.707031 85.691406 C 131.347656 86.050781 130.929688 86.328125 130.460938 86.523438 C 129.992188 86.71875 129.5 86.816406 128.992188 86.816406 Z M 128.992188 86.816406 " fill-opacity="1" fill-rule="nonzero"/></g><g clip-path="url(#98974e72d3)"><path fill="#ffffff" d="M 147.097656 76.632812 L 145.285156 76.632812 L 145.285156 71.453125 C 145.285156 71.027344 145.09375 70.679688 144.855469 70.679688 C 144.617188 70.679688 144.421875 71.027344 144.421875 71.453125 L 144.421875 76.632812 L 143.09375 76.632812 L 143.09375 75.535156 L 143.796875 75.535156 L 143.796875 66.804688 L 143.09375 66.804688 L 143.09375 65.550781 L 142.582031 65.550781 L 142.582031 64.363281 C 142.582031 64.109375 142.492188 63.890625 142.3125 63.707031 C 142.128906 63.527344 141.910156 63.433594 141.652344 63.433594 L 127.824219 63.433594 L 126.230469 55.484375 L 125.96875 54.308594 L 128.476562 54.308594 C 128.640625 54.308594 128.78125 54.25 128.898438 54.136719 C 129.011719 54.019531 129.070312 53.878906 129.070312 53.714844 L 129.070312 46.160156 C 129.070312 45.933594 128.992188 45.742188 128.832031 45.582031 C 128.671875 45.421875 128.476562 45.339844 128.25 45.339844 L 127.382812 45.339844 C 126.824219 45.339844 126.304688 45.488281 125.832031 45.785156 C 125.355469 46.082031 124.996094 46.484375 124.75 46.984375 L 44.515625 46.984375 C 43.84375 46.984375 43.195312 47.105469 42.570312 47.34375 C 41.941406 47.585938 41.378906 47.929688 40.878906 48.375 C 40.378906 48.824219 39.976562 49.347656 39.671875 49.941406 C 39.363281 50.539062 39.175781 51.171875 39.101562 51.839844 C 39.085938 51.996094 39.132812 52.136719 39.238281 52.253906 C 39.34375 52.371094 39.476562 52.429688 39.636719 52.429688 L 41.773438 52.429688 L 41.773438 63.921875 C 41.773438 64.089844 41.832031 64.234375 41.953125 64.351562 C 42.070312 64.472656 42.214844 64.53125 42.382812 64.53125 L 46.589844 64.53125 L 46.589844 64.671875 L 43.058594 68.628906 C 42.234375 69.550781 42.042969 70.074219 42.085938 71.308594 L 42.085938 78.945312 L 41.773438 78.945312 L 41.773438 82.277344 C 41.773438 82.417969 41.820312 82.535156 41.921875 82.636719 C 42.019531 82.734375 42.136719 82.78125 42.277344 82.78125 L 54.199219 82.78125 C 54.269531 82.78125 54.304688 82.746094 54.304688 82.675781 L 54.304688 82.644531 C 54.304688 82.160156 54.351562 81.679688 54.449219 81.203125 C 54.542969 80.730469 54.683594 80.269531 54.867188 79.820312 C 55.054688 79.371094 55.28125 78.945312 55.550781 78.542969 C 55.820312 78.140625 56.125 77.769531 56.46875 77.425781 C 56.8125 77.082031 57.183594 76.777344 57.585938 76.507812 C 57.988281 76.238281 58.414062 76.011719 58.863281 75.824219 C 59.3125 75.640625 59.773438 75.5 60.246094 75.40625 C 60.722656 75.308594 61.203125 75.261719 61.6875 75.261719 C 62.171875 75.261719 62.652344 75.308594 63.128906 75.40625 C 63.605469 75.5 64.066406 75.640625 64.511719 75.824219 C 64.960938 76.011719 65.386719 76.238281 65.789062 76.507812 C 66.191406 76.777344 66.566406 77.082031 66.910156 77.425781 C 67.25 77.769531 67.558594 78.140625 67.828125 78.542969 C 68.097656 78.945312 68.324219 79.371094 68.507812 79.820312 C 68.695312 80.269531 68.835938 80.730469 68.929688 81.203125 C 69.023438 81.679688 69.070312 82.160156 69.070312 82.644531 L 69.070312 82.675781 C 69.070312 82.746094 69.105469 82.78125 69.175781 82.78125 L 121.40625 82.78125 C 121.476562 82.78125 121.511719 82.746094 121.511719 82.675781 L 121.511719 82.644531 C 121.511719 81.894531 121.625 81.15625 121.847656 80.441406 C 122.074219 79.722656 122.402344 79.054688 122.832031 78.433594 C 123.257812 77.816406 123.769531 77.277344 124.363281 76.816406 C 124.960938 76.355469 125.609375 75.992188 126.3125 75.730469 C 127.019531 75.464844 127.746094 75.3125 128.496094 75.273438 C 129.25 75.234375 129.988281 75.304688 130.71875 75.492188 C 131.449219 75.675781 132.132812 75.96875 132.773438 76.363281 C 133.414062 76.757812 133.980469 77.238281 134.472656 77.808594 C 135.757812 79.105469 136.539062 80.796875 136.539062 82.644531 L 136.539062 82.675781 C 136.539062 82.746094 136.574219 82.78125 136.644531 82.78125 L 144.894531 82.78125 C 145.011719 82.78125 145.113281 82.824219 145.199219 82.910156 C 145.28125 82.992188 145.324219 83.09375 145.324219 83.214844 C 145.324219 83.554688 145.390625 83.886719 145.519531 84.203125 C 145.652344 84.519531 145.839844 84.796875 146.082031 85.039062 C 146.324219 85.285156 146.605469 85.46875 146.921875 85.601562 C 147.238281 85.734375 147.566406 85.796875 147.910156 85.796875 L 147.910156 77.445312 C 147.910156 77.21875 147.832031 77.03125 147.671875 76.871094 C 147.511719 76.710938 147.324219 76.632812 147.097656 76.632812 Z M 43.027344 71.554688 C 43.027344 71.472656 43.03125 71.390625 43.035156 71.308594 L 45.808594 71.308594 L 45.808594 72.246094 L 43.027344 72.246094 Z M 45.808594 72.992188 L 45.808594 76.007812 L 44.632812 76.007812 L 44.632812 72.992188 Z M 43.886719 78.945312 L 43.027344 78.945312 L 43.027344 76.59375 L 43.886719 76.59375 Z M 43.886719 76.007812 L 43.027344 76.007812 L 43.027344 72.992188 L 43.886719 72.992188 Z M 46.589844 78.945312 L 44.632812 78.945312 L 44.632812 76.59375 L 45.808594 76.59375 L 45.808594 78.082031 L 46.589844 78.082031 Z M 46.589844 67.820312 L 45.808594 67.820312 L 45.808594 70.71875 L 43.117188 70.71875 C 43.261719 70.058594 43.558594 69.476562 44.011719 68.972656 L 46.589844 66.085938 Z M 76.707031 62.808594 L 53.679688 62.808594 L 53.679688 55.199219 C 53.679688 53.5625 54.835938 52.234375 56.265625 52.234375 L 76.710938 52.234375 Z M 79.488281 62.808594 L 79.488281 52.234375 L 98.277344 52.234375 L 100.722656 62.808594 Z M 109.566406 59.695312 C 109.566406 60.035156 109.503906 60.363281 109.371094 60.675781 C 109.242188 60.992188 109.054688 61.269531 108.816406 61.507812 C 108.574219 61.75 108.296875 61.933594 107.984375 62.066406 C 107.667969 62.195312 107.34375 62.261719 107 62.261719 L 105.105469 62.261719 C 104.765625 62.261719 104.4375 62.195312 104.125 62.066406 C 103.808594 61.933594 103.53125 61.75 103.292969 61.507812 C 103.050781 61.269531 102.867188 60.992188 102.734375 60.675781 C 102.605469 60.363281 102.539062 60.035156 102.539062 59.695312 L 102.539062 54.601562 C 102.539062 54.261719 102.605469 53.9375 102.734375 53.621094 C 102.867188 53.308594 103.050781 53.03125 103.292969 52.789062 C 103.53125 52.550781 103.808594 52.363281 104.125 52.234375 C 104.4375 52.101562 104.765625 52.039062 105.105469 52.039062 L 107 52.039062 C 107.34375 52.039062 107.667969 52.101562 107.984375 52.234375 C 108.296875 52.363281 108.574219 52.550781 108.816406 52.789062 C 109.054688 53.03125 109.242188 53.308594 109.371094 53.621094 C 109.503906 53.9375 109.566406 54.261719 109.566406 54.601562 Z M 123.226562 63.257812 C 123.121094 63.394531 122.988281 63.476562 122.816406 63.503906 C 122.648438 63.53125 122.492188 63.496094 122.351562 63.394531 L 122.015625 63.15625 L 123.011719 61.167969 C 123.101562 60.988281 123.113281 60.804688 123.050781 60.617188 C 122.988281 60.425781 122.867188 60.285156 122.6875 60.195312 C 122.507812 60.109375 122.324219 60.09375 122.136719 60.15625 C 121.945312 60.21875 121.804688 60.339844 121.714844 60.519531 L 118.828125 66.277344 C 118.734375 66.457031 118.71875 66.640625 118.777344 66.835938 C 118.839844 67.027344 118.960938 67.167969 119.144531 67.261719 C 119.324219 67.351562 119.511719 67.363281 119.703125 67.296875 C 119.894531 67.234375 120.035156 67.109375 120.121094 66.925781 L 121.375 64.433594 L 121.78125 64.722656 C 122.308594 65.09375 122.570312 65.601562 122.570312 66.25 L 122.570312 71.214844 C 120.921875 72.792969 118.683594 73.8125 116.265625 73.8125 L 113.757812 73.8125 L 113.757812 66.78125 C 113.757812 66.042969 113.570312 65.355469 113.191406 64.722656 C 112.8125 64.085938 112.296875 63.59375 111.644531 63.246094 L 111.644531 51.765625 L 118.808594 51.765625 C 119.371094 51.765625 119.914062 51.859375 120.441406 52.046875 C 120.972656 52.238281 121.453125 52.511719 121.882812 52.871094 C 122.316406 53.226562 122.675781 53.648438 122.960938 54.128906 C 123.25 54.613281 123.445312 55.128906 123.550781 55.679688 L 124.789062 62.121094 C 124.152344 62.339844 123.628906 62.71875 123.226562 63.257812 Z M 123.226562 63.257812 " fill-opacity="1" fill-rule="nonzero"/></g><path fill="#ffffff" d="M 63.507812 82.78125 C 63.507812 83.03125 63.460938 83.273438 63.367188 83.5 C 63.269531 83.730469 63.136719 83.933594 62.957031 84.113281 C 62.78125 84.289062 62.578125 84.421875 62.347656 84.519531 C 62.117188 84.613281 61.878906 84.664062 61.628906 84.664062 C 61.378906 84.664062 61.140625 84.613281 60.910156 84.519531 C 60.679688 84.421875 60.476562 84.289062 60.300781 84.113281 C 60.125 83.933594 59.988281 83.730469 59.894531 83.5 C 59.796875 83.273438 59.75 83.03125 59.75 82.78125 C 59.75 82.53125 59.796875 82.292969 59.894531 82.0625 C 59.988281 81.832031 60.125 81.628906 60.300781 81.453125 C 60.476562 81.277344 60.679688 81.140625 60.910156 81.046875 C 61.140625 80.949219 61.378906 80.902344 61.628906 80.902344 C 61.878906 80.902344 62.117188 80.949219 62.347656 81.046875 C 62.578125 81.140625 62.78125 81.277344 62.957031 81.453125 C 63.136719 81.628906 63.269531 81.832031 63.367188 82.0625 C 63.460938 82.292969 63.507812 82.53125 63.507812 82.78125 Z M 63.507812 82.78125 " fill-opacity="1" fill-rule="nonzero"/><g clip-path="url(#35ed97fb8c)"><path fill="#ffffff" d="M 61.628906 76.007812 C 61.183594 76.007812 60.742188 76.050781 60.308594 76.136719 C 59.871094 76.222656 59.449219 76.351562 59.035156 76.523438 C 58.625 76.691406 58.234375 76.902344 57.867188 77.148438 C 57.496094 77.394531 57.152344 77.675781 56.839844 77.992188 C 56.523438 78.304688 56.242188 78.648438 55.996094 79.019531 C 55.75 79.386719 55.539062 79.777344 55.371094 80.191406 C 55.199219 80.601562 55.070312 81.023438 54.984375 81.460938 C 54.898438 81.898438 54.855469 82.335938 54.855469 82.78125 C 54.855469 83.226562 54.898438 83.667969 54.984375 84.105469 C 55.070312 84.539062 55.199219 84.964844 55.371094 85.375 C 55.539062 85.785156 55.75 86.175781 55.996094 86.546875 C 56.242188 86.917969 56.523438 87.257812 56.839844 87.574219 C 57.152344 87.886719 57.496094 88.167969 57.867188 88.417969 C 58.234375 88.664062 58.625 88.871094 59.035156 89.042969 C 59.449219 89.210938 59.871094 89.339844 60.308594 89.425781 C 60.742188 89.515625 61.183594 89.558594 61.628906 89.558594 C 62.074219 89.558594 62.515625 89.515625 62.953125 89.425781 C 63.386719 89.339844 63.8125 89.210938 64.222656 89.042969 C 64.632812 88.871094 65.023438 88.664062 65.394531 88.417969 C 65.765625 88.167969 66.105469 87.886719 66.421875 87.574219 C 66.734375 87.257812 67.015625 86.917969 67.261719 86.546875 C 67.511719 86.175781 67.71875 85.785156 67.890625 85.375 C 68.058594 84.964844 68.1875 84.539062 68.273438 84.105469 C 68.363281 83.667969 68.40625 83.226562 68.40625 82.78125 C 68.40625 82.335938 68.363281 81.898438 68.273438 81.460938 C 68.1875 81.023438 68.058594 80.601562 67.890625 80.191406 C 67.71875 79.777344 67.511719 79.386719 67.261719 79.019531 C 67.015625 78.648438 66.734375 78.304688 66.421875 77.992188 C 66.105469 77.675781 65.765625 77.394531 65.394531 77.148438 C 65.023438 76.902344 64.632812 76.691406 64.222656 76.523438 C 63.8125 76.351562 63.386719 76.222656 62.953125 76.136719 C 62.515625 76.050781 62.074219 76.007812 61.628906 76.007812 Z M 61.628906 86.621094 C 61.121094 86.621094 60.632812 86.523438 60.160156 86.328125 C 59.691406 86.132812 59.277344 85.855469 58.914062 85.496094 C 58.554688 85.136719 58.277344 84.722656 58.082031 84.25 C 57.890625 83.78125 57.792969 83.292969 57.792969 82.78125 C 57.792969 82.273438 57.890625 81.785156 58.082031 81.3125 C 58.277344 80.84375 58.554688 80.429688 58.914062 80.070312 C 59.277344 79.707031 59.691406 79.429688 60.160156 79.238281 C 60.632812 79.042969 61.121094 78.945312 61.628906 78.945312 C 62.136719 78.945312 62.628906 79.042969 63.097656 79.238281 C 63.570312 79.429688 63.984375 79.707031 64.34375 80.070312 C 64.703125 80.429688 64.980469 80.84375 65.175781 81.3125 C 65.371094 81.785156 65.46875 82.273438 65.46875 82.78125 C 65.46875 83.292969 65.371094 83.78125 65.175781 84.25 C 64.980469 84.71875 64.703125 85.136719 64.34375 85.496094 C 63.984375 85.855469 63.566406 86.132812 63.097656 86.328125 C 62.628906 86.523438 62.136719 86.621094 61.628906 86.621094 Z M 61.628906 86.621094 " fill-opacity="1" fill-rule="nonzero"/></g></svg>