<svg xmlns="http://www.w3.org/2000/svg" xmlns:xlink="http://www.w3.org/1999/xlink" width="250" zoomAndPan="magnify" viewBox="0 0 187.5 187.499992" height="250" preserveAspectRatio="xMidYMid meet" version="1.0"><defs><clipPath id="918b534dd6"><path d="M 32.667969 3.042969 L 154.320312 3.042969 L 154.320312 183.953125 L 32.667969 183.953125 Z M 32.667969 3.042969 " clip-rule="nonzero"/></clipPath><clipPath id="0ed652bdd4"><path d="M 62.003906 32.734375 L 125 32.734375 L 125 95.730469 L 62.003906 95.730469 Z M 62.003906 32.734375 " clip-rule="nonzero"/></clipPath><clipPath id="cf328cf566"><path d="M 93.5 32.734375 C 76.105469 32.734375 62.003906 46.835938 62.003906 64.234375 C 62.003906 81.628906 76.105469 95.730469 93.5 95.730469 C 110.898438 95.730469 125 81.628906 125 64.234375 C 125 46.835938 110.898438 32.734375 93.5 32.734375 Z M 93.5 32.734375 " clip-rule="nonzero"/></clipPath><clipPath id="fdad6ddfa0"><path d="M 0.00390625 0.734375 L 63 0.734375 L 63 63.730469 L 0.00390625 63.730469 Z M 0.00390625 0.734375 " clip-rule="nonzero"/></clipPath><clipPath id="d55922c8d3"><path d="M 31.5 0.734375 C 14.105469 0.734375 0.00390625 14.835938 0.00390625 32.234375 C 0.00390625 49.628906 14.105469 63.730469 31.5 63.730469 C 48.898438 63.730469 63 49.628906 63 32.234375 C 63 14.835938 48.898438 0.734375 31.5 0.734375 Z M 31.5 0.734375 " clip-rule="nonzero"/></clipPath><clipPath id="72914b4db5"><rect x="0" width="63" y="0" height="64"/></clipPath><clipPath id="d26a5e50c7"><path d="M 54.847656 7.921875 L 131.890625 7.921875 L 131.890625 106.660156 L 54.847656 106.660156 Z M 54.847656 7.921875 " clip-rule="nonzero"/></clipPath></defs><g clip-path="url(#918b534dd6)"><path fill="#8b5cf6" d="M 95.941406 94.214844 C 77.191406 95.691406 61.671875 80.171875 63.148438 61.421875 C 64.308594 46.675781 76.257812 34.726562 91.007812 33.5625 C 109.757812 32.085938 125.277344 47.609375 123.800781 66.355469 C 122.640625 81.105469 110.691406 93.054688 95.941406 94.214844 Z M 92.554688 3.050781 C 57.65625 3.566406 30.960938 33.847656 32.753906 68.703125 C 35.398438 120.226562 79.433594 170.601562 90.808594 182.796875 C 92.253906 184.34375 94.703125 184.335938 96.144531 182.789062 C 107.886719 170.199219 154.320312 117.042969 154.320312 63.890625 C 154.320312 29.984375 126.574219 2.546875 92.554688 3.050781 " fill-opacity="1" fill-rule="nonzero"/></g><g clip-path="url(#0ed652bdd4)"><g clip-path="url(#cf328cf566)"><g transform="matrix(1, 0, 0, 1, 62, 32)"><g clip-path="url(#72914b4db5)"><g clip-path="url(#fdad6ddfa0)"><g clip-path="url(#d55922c8d3)"><path fill="#8b5cf6" d="M 0.00390625 0.734375 L 63 0.734375 L 63 63.730469 L 0.00390625 63.730469 Z M 0.00390625 0.734375 " fill-opacity="1" fill-rule="nonzero"/></g></g></g></g></g></g><g clip-path="url(#d26a5e50c7)"><path fill="#ffffff" d="M 93.921875 7.921875 C 91.335938 7.921875 88.855469 8.949219 87.027344 10.777344 C 85.199219 12.605469 84.171875 15.085938 84.171875 17.671875 C 84.175781 22.546875 87.777344 26.671875 92.609375 27.328125 L 92.136719 29.179688 C 90.09375 29.664062 88.703125 30.976562 88.65625 32.464844 C 84.519531 33.257812 78.402344 35.789062 72.234375 43.265625 C 63.894531 53.375 66.089844 73.722656 66.089844 73.722656 L 62.667969 73.722656 L 54.847656 81.046875 L 54.847656 106.894531 L 132.144531 106.894531 L 132.144531 81.046875 L 124.328125 73.722656 L 120.902344 73.722656 C 120.902344 73.722656 123.101562 53.375 114.757812 43.265625 C 108.589844 35.789062 102.476562 33.257812 98.339844 32.464844 C 98.289062 30.976562 96.902344 29.664062 94.855469 29.179688 L 94.394531 27.359375 C 98.421875 27.164062 101.914062 24.511719 103.179688 20.679688 C 101.816406 22.214844 99.867188 23.09375 97.816406 23.09375 C 95.910156 23.09375 94.085938 22.335938 92.738281 20.992188 C 91.390625 19.644531 90.632812 17.816406 90.632812 15.914062 C 90.632812 11.953125 93.84375 8.738281 97.804688 8.730469 C 96.578125 8.199219 95.257812 7.921875 93.921875 7.921875 Z M 74.660156 58.5625 C 77.191406 58.535156 78.480469 61.824219 78.480469 61.824219 L 78.480469 70.730469 L 70.910156 70.730469 L 70.910156 61.824219 C 70.910156 61.824219 72.128906 58.589844 74.660156 58.5625 Z M 87.34375 58.5625 C 89.875 58.535156 91.164062 61.824219 91.164062 61.824219 L 91.164062 70.730469 L 83.59375 70.730469 L 83.59375 61.824219 C 83.59375 61.824219 84.8125 58.589844 87.34375 58.5625 Z M 99.746094 58.5625 C 102.277344 58.535156 103.566406 61.824219 103.566406 61.824219 L 103.566406 70.730469 L 95.996094 70.730469 L 95.996094 61.824219 C 95.996094 61.824219 97.214844 58.589844 99.746094 58.5625 Z M 112.265625 58.5625 C 114.796875 58.535156 116.085938 61.824219 116.085938 61.824219 L 116.085938 70.730469 L 108.511719 70.730469 L 108.511719 61.824219 C 108.511719 61.824219 109.730469 58.589844 112.265625 58.5625 Z M 69.316406 79.828125 C 74.1875 79.773438 76.664062 86.09375 76.664062 86.09375 L 76.664062 103.21875 L 62.105469 103.21875 L 62.105469 86.09375 C 62.105469 86.09375 64.449219 79.878906 69.316406 79.828125 Z M 93.429688 78.679688 C 98.296875 78.628906 100.777344 84.945312 100.777344 84.945312 L 100.777344 105.4375 L 86.21875 105.4375 L 86.21875 84.945312 C 86.21875 84.945312 88.5625 78.730469 93.429688 78.679688 Z M 117.542969 79.828125 C 122.410156 79.773438 124.886719 86.09375 124.886719 86.09375 L 124.886719 103.21875 L 110.332031 103.21875 L 110.332031 86.09375 C 110.332031 86.09375 112.671875 79.878906 117.542969 79.828125 Z M 117.542969 79.828125 " fill-opacity="1" fill-rule="nonzero"/></g></svg>