<svg xmlns="http://www.w3.org/2000/svg" xmlns:xlink="http://www.w3.org/1999/xlink" width="500" zoomAndPan="magnify" viewBox="0 0 375 374.999991" height="500" preserveAspectRatio="xMidYMid meet" version="1.0"><defs><clipPath id="cbfcf2f098"><path d="M 64.6875 0 L 310.6875 0 L 310.6875 375 L 64.6875 375 Z M 64.6875 0 " clip-rule="nonzero"/></clipPath></defs><g clip-path="url(#cbfcf2f098)"><path fill="#5170ff" d="M 187.5 0 C 119.707031 0 64.753906 54.953125 64.753906 122.746094 C 64.753906 211.742188 187.5 375 187.5 375 C 187.5 375 310.246094 211.742188 310.246094 122.746094 C 310.246094 54.953125 255.292969 0 187.5 0 " fill-opacity="1" fill-rule="nonzero"/></g><path fill="#ffffff" d="M 261.613281 122.746094 C 261.613281 163.675781 228.429688 196.859375 187.5 196.859375 C 146.570312 196.859375 113.386719 163.675781 113.386719 122.746094 C 113.386719 81.816406 146.570312 48.632812 187.5 48.632812 C 228.429688 48.632812 261.613281 81.816406 261.613281 122.746094 " fill-opacity="1" fill-rule="nonzero"/></svg>