<svg xmlns="http://www.w3.org/2000/svg" xmlns:xlink="http://www.w3.org/1999/xlink" width="500" zoomAndPan="magnify" viewBox="0 0 375 374.999991" height="500" preserveAspectRatio="xMidYMid meet" version="1.0"><defs><clipPath id="4b4d839a95"><path d="M 28.328125 3.753906 L 274 3.753906 L 274 256 L 28.328125 256 Z M 28.328125 3.753906 " clip-rule="nonzero"/></clipPath><clipPath id="4128e48c46"><path d="M 75 26 L 346.328125 26 L 346.328125 371.253906 L 75 371.253906 Z M 75 26 " clip-rule="nonzero"/></clipPath></defs><g clip-path="url(#4b4d839a95)"><path fill="#7ed957" d="M 187.5 42.84375 L 260.054688 84.730469 C 264.882812 74.773438 269.324219 64.292969 273.289062 53.277344 L 187.5 3.746094 L 28.363281 95.621094 L 28.363281 101.390625 C 28.363281 155.425781 42.648438 208.726562 69.664062 255.527344 C 69.699219 255.585938 69.734375 255.648438 69.769531 255.707031 L 71.632812 254.992188 C 78.359375 252.40625 87.792969 248.46875 99.003906 242.9375 C 76.222656 204.757812 63.195312 160.796875 62.277344 115.136719 L 187.5 42.84375 " fill-opacity="1" fill-rule="nonzero"/></g><g clip-path="url(#4128e48c46)"><path fill="#5170ff" d="M 302.824219 70.328125 C 301.390625 80.625 299.089844 92.351562 295.453125 105.164062 L 312.71875 115.136719 C 310.9375 203.859375 263.429688 286.167969 187.5 332.085938 C 168.179688 320.402344 150.707031 306.351562 135.351562 290.449219 C 313.121094 172.339844 293.140625 26.820312 293.140625 26.820312 C 251.695312 186.339844 117.445312 249.363281 75.636719 265.417969 C 83.648438 278.160156 92.574219 290.261719 102.316406 301.65625 C 102.308594 301.65625 102.304688 301.65625 102.304688 301.660156 C 102.453125 301.832031 102.605469 302.003906 102.75 302.175781 C 103.472656 303.011719 104.203125 303.839844 104.933594 304.667969 C 105.652344 305.492188 106.367188 306.316406 107.097656 307.128906 C 107.265625 307.3125 107.429688 307.507812 107.597656 307.695312 C 107.601562 307.695312 107.605469 307.691406 107.609375 307.691406 C 129.171875 331.621094 154.429688 352.15625 182.5 368.363281 L 187.5 371.246094 L 192.492188 368.363281 C 239.296875 341.34375 278.3125 302.324219 305.332031 255.527344 C 332.351562 208.726562 346.632812 155.425781 346.632812 101.390625 L 346.632812 95.621094 L 302.824219 70.328125 " fill-opacity="1" fill-rule="nonzero"/></g></svg>